<svg xmlns="http://www.w3.org/2000/svg" width="15" height="15" viewBox="0 0 15 15">
    <path fill="#000" fill-rule="nonzero" d="M13.994 3.829a7.564 7.564 0 0 0-2.73-2.798A7.198 7.198 0 0 0 7.5 0a7.2 7.2 0 0 0-3.765 1.031 7.563 7.563 0 0 0-2.73 2.798A7.666 7.666 0 0 0 0 7.688c0 1.675.477 3.181 1.43 4.52.954 1.338 2.186 2.263 3.697 2.777.176.034.306.01.39-.07a.396.396 0 0 0 .127-.3l-.005-.54c-.003-.34-.005-.638-.005-.891l-.224.04a2.796 2.796 0 0 1-.542.035 4.032 4.032 0 0 1-.679-.07 1.499 1.499 0 0 1-.654-.3 1.27 1.27 0 0 1-.43-.616l-.097-.23a2.513 2.513 0 0 0-.308-.51c-.14-.188-.282-.315-.425-.381l-.068-.05a.724.724 0 0 1-.127-.12.551.551 0 0 1-.088-.14c-.02-.048-.003-.086.049-.116.052-.03.146-.045.283-.045l.195.03c.13.027.292.107.484.24a1.6 1.6 0 0 1 .473.52c.15.274.33.483.542.626.212.144.425.216.64.216.215 0 .4-.017.557-.05a1.91 1.91 0 0 0 .439-.15c.059-.448.218-.792.478-1.032-.37-.04-.704-.1-1-.18a3.932 3.932 0 0 1-.918-.39 2.645 2.645 0 0 1-.787-.671c-.208-.267-.379-.618-.512-1.051a5.115 5.115 0 0 1-.2-1.502c0-.807.257-1.495.771-2.062-.24-.607-.218-1.288.069-2.042.188-.06.468-.015.84.135.37.15.642.279.815.386.172.106.31.197.415.27a6.776 6.776 0 0 1 1.875-.26c.644 0 1.27.086 1.875.26l.371-.24a5.2 5.2 0 0 1 .898-.44c.345-.134.61-.171.792-.11.292.753.319 1.434.078 2.041.514.567.771 1.255.771 2.062 0 .568-.067 1.07-.2 1.507-.133.437-.306.787-.517 1.05a2.746 2.746 0 0 1-.792.667 3.94 3.94 0 0 1-.918.39c-.296.08-.63.14-1 .18.338.3.507.774.507 1.422v2.112c0 .12.04.22.122.3.082.08.21.103.386.07 1.51-.514 2.743-1.44 3.696-2.778C14.523 10.87 15 9.363 15 7.687c0-1.394-.336-2.68-1.006-3.858z"/>
</svg>
