<svg xmlns="http://www.w3.org/2000/svg" width="16" height="15" viewBox="0 0 16 15">
    <g fill="#000" fill-rule="nonzero">
        <path d="M8.547 6.688a.425.425 0 0 0 0 .618c.733.709.733 1.86 0 2.57l-3.852 3.72a1.929 1.929 0 0 1-2.659 0l-.58-.56a1.775 1.775 0 0 1 0-2.569l3.852-3.72a.425.425 0 0 0 0-.618.462.462 0 0 0-.64 0l-3.85 3.72A2.63 2.63 0 0 0 0 11.752c0 .718.288 1.394.817 1.902l.58.56A2.827 2.827 0 0 0 3.366 15c.713 0 1.426-.262 1.969-.786l3.851-3.72a2.63 2.63 0 0 0 0-3.806.462.462 0 0 0-.64 0z"/>
        <path d="M15.186 1.346l-.58-.56c-1.085-1.048-2.854-1.048-3.94 0l-3.852 3.72a2.63 2.63 0 0 0 0 3.805.462.462 0 0 0 .64 0 .425.425 0 0 0 0-.618 1.774 1.774 0 0 1 0-2.569l3.853-3.72a1.93 1.93 0 0 1 2.66 0l.58.56c.733.708.733 1.86 0 2.568l-3.854 3.72a.425.425 0 0 0 0 .619c.088.084.205.129.319.129a.45.45 0 0 0 .318-.13l3.853-3.72a2.626 2.626 0 0 0 .003-3.804z"/>
    </g>
</svg>
