<?xml version="1.0" encoding="utf-8"?>
<!-- Generator: Adobe Illustrator 23.0.4, SVG Export Plug-In . SVG Version: 6.00 Build 0)  -->
<svg version="1.1" id="Calque_1" xmlns="http://www.w3.org/2000/svg" xmlns:xlink="http://www.w3.org/1999/xlink" x="0px" y="0px"
	 viewBox="0 0 640 640" style="enable-background:new 0 0 640 640;" xml:space="preserve">
<style type="text/css">
	.st0{fill:none;stroke:#E74628;stroke-width:2;stroke-linecap:round;stroke-linejoin:round;}
	.st1{fill:#E74628;}
	.st2{fill:#1D1E1C;}
	.st3{fill:#E74628;stroke:#E74628;stroke-width:2;stroke-miterlimit:10;}
</style>
<g>
	<g>
		<path class="st0" d="M526.2,198.2c-8.4-4.9-16.7-9.9-25.1-14.7c-11.6-6.6-23.3-12.9-34.9-19.4c-16.6-9.4-33.1-18.8-49.6-28.3
			c-11.2-6.4-22.4-12.7-33.6-19c-16.5-9.4-33.1-18.8-49.6-28.3c-10.1-5.8-20.5-11.2-30.3-17.4c-2.2-1.4-3.8-1.4-5.8-1
			c-30.5,5.6-61,11.3-91.5,16.9c-31,5.7-62,11.4-92.9,17c-1.8,0.3-3.6,0.7-5.6,1.2c-0.7,0.2-1.4,0.3-2.1,0.5
			c-27.3,94.6-54.7,189.8-82.1,284.9c15.7,8.9,31.1,17.8,46.6,26.5c16.4,9.3,32.9,18.4,49.3,27.8c12.4,7.1,24.7,14.3,37.2,21.4
			c22,12.5,44.1,24.8,66.1,37.3c8.3,4.7,16.4,9.8,24.7,14.5c1.5,0.8,3.1,1.4,4.7,1.6c2.4,0.4,5,0.1,7.5-0.3
			c37.4-6.9,74.8-13.8,112.2-20.7c23.6-4.3,47.2-8.5,70.7-12.7c2-0.4,4-1.1,5.9-1.6c27.3-94.7,54.6-189.3,81.7-283.6
			c-0.8-0.4-1.8-1-2.7-1.5"/>
		<path class="st0" d="M464,244.5c-0.3,1.5-0.4,3-0.8,4.4c-16.5,57.3-33,114.7-49.6,172c-0.5,1.6-0.9,3.2-1.4,4.8
			c-1.4,4.7-2.8,9.5-4.2,14.5c0,0.1-0.1,0.2-0.1,0.3c8.1,4.9,15.9,9.6,24,14.5l1.4,0.8c21-72.7,41.9-145.4,62.9-218.1
			c-10.8,1.9-21.6,3.8-32.3,5.8c-38.8,6.9-77.8,13.9-117,20.8c-10.2,35.2-20.4,70.6-30.6,106.1"/>
		<path class="st0" d="M235.2,218.7c-8.5-4.9-17-9.9-25.6-14.8c-8.6-4.9-17.4-9.7-26.1-14.5c-14.2-7.9-28.3-15.9-42.5-23.9
			c-0.3-0.2-0.6-0.4-1-0.5c-4.8-2.7-9.5-5.4-14.3-8c-1-0.6-2.1-1-3.5-1.6c-20.9,72.6-41.7,144.8-62.7,217.6c0.5,0.3,1.1,0.6,1.6,0.9
			c57.3,32.5,114.6,65.1,172.7,98.1c1.5-5.2,3-10.4,4.5-15.7c5.9-20.4,11.8-40.8,17.6-61.1"/>
		<path class="st0" d="M303.5,90.2c-0.3,1.6-0.5,3.3-1,4.8c-2.7,9.5-5.4,18.9-8.2,28.4c0,0.2-0.1,0.3-0.1,0.4
			c-12.6,43.7-25.2,87.5-37.8,131.2c-6.3,22.1-12.6,44.2-18.7,66.4c-1.8,6.6-3.2,13.2-4.8,19.9c0,0.1,0,0.1,0,0.2"/>
		<path class="st0" d="M261.3,129.8c-0.3,1.5-0.4,3-0.8,4.4c-3.5,11.9-7.1,23.7-10.6,35.6c-1.4,4.7-2.8,9.4-4.2,14.2
			c-3.4,11.6-6.7,23.2-10.1,34.8c-10.3,35.6-20.6,71.3-30.8,107c-12.3,2.4-25.1,4.9-38,7.3c-23.9,4.4-47.8,8.6-71.7,12.8
			c-1.8,0.3-3.8,0.2-5.7,0.3"/>
		<path class="st0" d="M481.7,189.6c-6.9-3.7-13.8-7.3-20.6-11.1c-24.5-13.8-48.9-27.7-73.3-41.6c-21.5-12.3-42.8-24.8-64.3-37.1
			c-5.3-3.1-10.6-6.2-16.1-8.7c-1.2-0.5-2.6-0.8-3.9-0.9c-1.6-0.1-3.1,0-4.7,0.2c-19.9,3.4-39.7,7.1-59.5,10.7
			c-26.2,4.7-52.4,9.5-78.6,14.2c-1.3,0.2-6.9,0.2-8.2,0.8"/>
		<path class="st0" d="M222.5,374.3c2.5-8.3,5.1-16.5,7.6-24.8c0.7-2.4,1.4-4.9,2.3-7.8l0.3,0.2c2.7,1.3,5.7,2.8,8.6,4.4
			c20.8,11.9,41.6,23.7,62.4,35.7c20.5,11.8,41,23.7,61.6,35.4c12.9,7.3,26,14.3,39,21.6c0.6,0.3,0.9,1.2,1.4,1.7"/>
		<path class="st0" d="M139.6,165.9c-1.2,4.3-2.5,8.6-3.7,12.9c-15.2,53.4-30.4,106.7-45.7,160.1c-0.6,2.3-1.3,4.6-1.9,6.9
			c-1.9,7.3-3.7,14.7-5.6,22.1"/>
		<path class="st0" d="M525.7,199.9c-23.1,4.1-46.1,8.1-69.2,12.2c-24.6,4.4-49.1,8.9-73.7,13.2c-16.2,2.9-32.4,5.6-48.6,8.4
			c-0.1,0-0.2-0.1-0.3-0.1c-13.8-7.7-27.6-15.4-41.5-23.1"/>
		<path class="st0" d="M431.4,456c-8.1,1.7-16.2,3.6-24.3,5.1c-27.5,5.1-55,9.9-82.5,14.9c-12.5,2.3-24.9,4.6-37.4,6.9
			c-0.9,0.2-1.9,0.2-3.4,0.4c1.5-5.2,2.9-10.1,4.3-15c0.7-2.6,1.5-5.2,2.2-7.7l0,0c3.4-11.8,6.8-23.5,10.2-35.3
			c0.4-1.4,1.1-2.8,1.7-4.2"/>
		<path class="st0" d="M108.4,106.2c5.3,3.2,10.5,6.6,15.9,9.7c27.7,15.5,55.4,30.9,83.1,46.4c12.7,7.1,25.3,14.4,38,21.7"/>
		<path class="st0" d="M231.4,341.9c-13.9,2.5-27.8,5-41.8,7.5c-34.2,6.1-68.4,12.3-102.7,18.4c-0.4,0.1-0.7,0.4-1.1,0.6"/>
		<path class="st0" d="M333.7,234c-0.2,1.2-0.3,2.4-0.6,3.5c-11.5,39.9-23,79.7-34.5,119.6c-0.3,1.1-0.9,2.2-1.4,3.3"/>
		<path class="st0" d="M85.3,370.2c8.2,4.8,16.4,9.8,24.7,14.5c5.4,3.1,10.9,6,16.4,8.9c3.1,1.7,6.2,3.4,9.3,5.1
			c13.3,7.4,26.4,15.1,39.6,22.6c20,11.4,40,22.7,60.1,34.1c0.6,0.4,1.4,0.4,2.1,0.6"/>
		<path class="st0" d="M424.3,197.7c-5.5-3.5-11-7.1-16.6-10.3c-11.7-6.8-23.5-13.3-35.2-20c-14.2-8-28.4-15.9-42.5-23.9
			c-5.4-3.1-10.8-6.2-16.2-9.3c-4.7-2.7-9.5-5.5-14.2-8.2c-1.4-0.8-3-1.5-4.5-2.3"/>
		<path class="st0" d="M283.4,410.5c-10.6,36.2-21.2,72.5-31.8,108.7"/>
		<path class="st0" d="M270,345.2c0.4-1,1-1.9,1.3-2.9c8.4-29,16.7-57.9,25.1-86.9c0.2-0.6,0.2-1.2,0.5-2.3
			c-4.8-2.6-9.6-5.2-14.3-7.7"/>
		<path class="st0" d="M232.9,341.3L232.9,341.3c6.5-1.4,14.6-2.5,21.1-3.3c0.5-0.1,0.9,0,1.4,0c2,0.4,4.2,1.8,6.1,2.9
			c2.8,1.6,5.5,3.1,8.3,4.7c9,5.2,18.1,10.4,27.1,15.6c4.5,2.6,8.9,5.1,13.4,7.6c1.8,1,3.5,2,5.3,3c20.4,11.4,40.9,22.6,61.3,34
			c11.5,6.4,22.9,13.1,34.4,19.7"/>
		<path class="st0" d="M313.4,135c-5.7,20.4-11.3,40.8-17.2,61.2c-1.4,4.7-2.7,9.5-4.1,14.2c-3.4,11.6-6.7,23.2-10.1,34.8
			c-8.5,29.1-17,58.2-25.4,87.2c-0.5,1.6-0.6,3.2-0.9,4.8"/>
		<path class="st0" d="M352.7,449.6c-3.8-2.5-7.5-5.2-11.4-7.4c-12.8-7.4-25.6-14.9-38.5-22.2c-3.4-1.9-6.9-3.9-10.3-5.8
			c-2.9-1.6-5.7-3.2-8.6-4.7c-9.2-4.9-18.5-9.6-27.6-14.7l-0.1-0.1c-11.4-6.5-22.5-13.5-33.4-20.1c-0.1,0-0.2,0-0.2,0
			c-30.7,5.8-61,11.5-91.3,17.2c-1.6,0.3-3.1,1-4.6,1.4"/>
		<path class="st0" d="M481.7,189.6L481.7,189.6c-8.3,1.7-20.9,2.7-29.2,4c-9,1.5-18.2,2.3-27.2,3.9c-0.3,0.1-0.6,0.1-1,0.2
			c-17.5,3.2-34.9,6.7-52.3,10c-12.7,2.4-25.5,4.4-38.2,6.8c-2.7,0.5-4.8-0.3-7-1.6c-9.6-5.5-19.2-10.9-28.9-16.3
			c-0.4-0.2-0.8-0.3-1.3-0.4"/>
		<path class="st0" d="M294.2,123.9L294.2,123.9c-5.3,0.6-10.7,1-15.9,2c-5.7,1-11.4,2-17.1,3c-18.9,3.4-37.7,6.8-56.6,10.2
			c-1.8,0.3-3.5,1.1-5.2,1.7"/>
		<path class="st0" d="M408,440.4l-2.4,0.4c-17.5,3-35,5.8-52.5,9l-0.4,0.1c-18.8,3.4-37.5,7-56.3,10.5c-1.7,0.3-3.5,0.3-5.2,0.4"/>
		<path class="st0" d="M152.5,116.1c2.1,0.8,4.4,1.3,6.3,2.3c7.5,4.2,14.9,8.6,22.4,12.9c5.9,3.4,11.9,6.8,17.8,10.2
			c9.5,5.4,19.1,10.9,28.6,16.2c7.2,4.1,14.5,7.9,21.7,11.9"/>
		<path class="st0" d="M232.3,341.6l-0.5-0.3c-7.9-4.7-18.4-10.1-26.2-14.7"/>
		<path class="st0" d="M84.7,369.1c-0.3,0-0.5,0-0.8,0c-0.5,0-1,0-1.5,0c-1.3-0.1-2.5,0-3.8,0.2c-5.7,1.2-11.3,2.6-17,3.9"/>
	</g>
	<path class="st1" d="M2,483.8h9l0.9,11.6h0.4c2.2-4,4.9-7.2,8-9.6s6.5-3.6,10.2-3.6c2.4,0,4.7,0.4,6.9,1.3l-2.1,9.5
		c-0.9-0.3-1.9-0.6-2.9-0.8c-1.1-0.2-2.2-0.3-3.3-0.3c-2.7,0-5.6,1.1-8.5,3.3s-5.5,6-7.7,11.5v41.1H2L2,483.8z"/>
	<path class="st1" d="M46.5,516c0-5.3,0.8-10,2.4-14.2c1.5-3.9,3.7-7.5,6.5-10.6c2.6-2.8,5.7-5.1,9.2-6.7c3.4-1.5,7-2.3,10.7-2.3
		c4,0,7.7,0.7,10.9,2.1c3.1,1.3,5.9,3.4,8,6.1c2.2,2.8,3.9,6,4.9,9.5c1.2,4,1.8,8.2,1.7,12.4c0,2-0.1,4-0.4,5.9H57.2
		c0.4,6.9,2.6,12.4,6.4,16.5c3.8,4,8.8,6.1,15,6.1c2.9,0,5.8-0.4,8.5-1.4c2.6-0.9,5.1-2.1,7.4-3.6l3.8,7.1c-3,1.8-6.1,3.4-9.4,4.6
		c-3.4,1.3-7.3,2-11.7,2c-4.1,0-8.2-0.8-12.1-2.3c-3.7-1.5-7-3.7-9.8-6.6c-2.9-3-5.1-6.6-6.5-10.5C47.3,526,46.5,521.3,46.5,516z
		 M91.3,511.1c0-6.6-1.4-11.6-4.2-15.1c-2.8-3.5-6.6-5.2-11.6-5.2c-2.2,0-4.5,0.5-6.5,1.4c-2.1,0.9-4,2.3-5.6,4
		c-1.8,1.8-3.2,4-4.1,6.3c-1.2,2.7-1.9,5.7-2.2,8.6H91.3z"/>
	<path class="st1" d="M112.9,483.8h11.2l12.1,36.4c1,3.2,1.9,6.3,3,9.5c1,3.2,2,6.3,3,9.4h0.5c1-3.1,1.9-6.2,2.9-9.4l2.9-9.5
		l12.1-36.4h10.7l-22.7,64H136L112.9,483.8z"/>
	<g>
		<path class="st2" d="M228,485.1h4.9l0.5,11.5h0.4c2.1-3.9,4.6-7,7.5-9.4c2.8-2.3,6.3-3.6,10-3.6c1.1,0,2.2,0.1,3.2,0.3
			c1,0.2,2,0.5,3,1l-1.3,5.2c-0.9-0.4-1.8-0.7-2.7-0.8c-1-0.1-2-0.2-3-0.2c-2.8,0-5.7,1.2-8.7,3.5c-3.1,2.4-5.8,6.5-8.2,12.3V547
			H228L228,485.1z"/>
		<path class="st2" d="M261.8,516.2c0-5.1,0.8-9.6,2.3-13.7c1.3-3.8,3.4-7.3,6.1-10.3c2.4-2.7,5.4-4.9,8.6-6.5
			c3.1-1.5,6.5-2.3,10-2.3c7.4,0,13.2,2.5,17.4,7.5c4.2,5,6.3,12,6.3,21.2v2.3c0,0.8-0.1,1.6-0.3,2.3h-44.6
			c0.1,3.7,0.7,7.3,1.8,10.8c1,3.1,2.6,6,4.7,8.5c2,2.4,4.5,4.2,7.3,5.5c3,1.4,6.3,2.1,9.5,2c3.1,0,6.2-0.5,9.1-1.5
			c2.7-1,5.2-2.3,7.5-4.1l2.3,4.4c-2.6,1.5-5.4,2.9-8.2,4.1c-3,1.3-6.7,1.9-11.3,1.9c-3.8,0-7.6-0.7-11.2-2.2
			c-3.5-1.4-6.6-3.6-9.1-6.4c-2.7-3-4.8-6.4-6.1-10.2C262.6,525.8,261.8,521.3,261.8,516.2z M307.1,512.5c0-8-1.6-14-4.9-18
			c-3.3-4-7.7-6-13.3-6c-2.6,0-5.2,0.6-7.6,1.7c-2.5,1.2-4.7,2.8-6.5,4.8c-2,2.2-3.6,4.8-4.8,7.5c-1.3,3.2-2.1,6.6-2.4,10
			L307.1,512.5z"/>
		<path class="st2" d="M325.4,535.8c2.6,2.2,5.5,4.1,8.5,5.6c3,1.5,6.8,2.3,11.2,2.3c4.9,0,8.6-1.2,11-3.7c2.4-2.5,3.7-5.3,3.7-8.6
			c0-1.8-0.4-3.5-1.4-5c-0.9-1.5-2.1-2.7-3.5-3.7c-1.5-1.1-3.1-2-4.8-2.7c-1.8-0.8-3.5-1.5-5.4-2.2c-2.3-0.9-4.7-1.8-7-2.7
			c-2.3-0.9-4.4-2-6.4-3.4c-1.8-1.3-3.4-2.9-4.6-4.8c-1.2-1.8-1.7-4.1-1.7-6.8c0-2.2,0.4-4.4,1.3-6.4c0.9-2,2.2-3.8,3.9-5.3
			c1.8-1.6,4-2.8,6.3-3.5c2.5-0.9,5.3-1.3,8.6-1.3c3.3,0,6.5,0.6,9.6,1.8c2.9,1.1,5.7,2.7,8.1,4.6l-3.1,4c-2-1.5-4.3-2.9-6.6-3.9
			c-2.3-1.1-5.1-1.6-8.3-1.6c-2.1,0-4.2,0.3-6.2,1c-1.6,0.6-3,1.4-4.3,2.5c-1.1,1-2,2.2-2.6,3.6c-0.5,1.3-0.8,2.7-0.8,4.1
			c-0.1,1.6,0.4,3.2,1.2,4.6c0.9,1.3,2,2.4,3.3,3.3c1.5,1,3.1,1.8,4.7,2.5c1.8,0.7,3.5,1.4,5.4,2.1l7.2,2.8c2.3,0.9,4.5,2.1,6.5,3.5
			c1.9,1.3,3.5,3.1,4.7,5.1c1.2,2,1.8,4.5,1.8,7.5c0,2.3-0.5,4.5-1.4,6.6c-0.9,2.1-2.3,4-4.1,5.5c-1.9,1.7-4.2,3-6.6,3.8
			c-2.9,1-5.9,1.5-8.9,1.4c-4.4,0.1-8.7-0.8-12.8-2.5c-3.6-1.5-6.9-3.5-9.9-6L325.4,535.8z"/>
		<path class="st2" d="M376.3,516.2c0-5.1,0.8-9.6,2.3-13.7c1.3-3.8,3.4-7.3,6.1-10.3c2.4-2.7,5.4-4.9,8.6-6.5
			c3.1-1.5,6.5-2.3,10-2.3c7.4,0,13.2,2.5,17.4,7.5c4.2,5,6.3,12,6.3,21.2v2.3c0,0.8-0.1,1.6-0.3,2.3h-44.6c0,3.7,0.7,7.3,1.8,10.8
			c1,3.1,2.6,6,4.7,8.5c2,2.4,4.5,4.2,7.3,5.5c3,1.4,6.3,2.1,9.5,2c3.1,0,6.2-0.5,9.1-1.5c2.7-1,5.2-2.3,7.5-4.1l2.3,4.4
			c-2.6,1.5-5.4,2.9-8.2,4.1c-3,1.3-6.7,1.9-11.3,1.9c-3.8,0-7.6-0.7-11.2-2.2c-3.5-1.4-6.6-3.6-9.1-6.4c-2.7-3-4.8-6.4-6.1-10.2
			C377,525.8,376.3,521.3,376.3,516.2z M421.5,512.5c0-8-1.6-14-4.9-18c-3.3-4-7.7-6-13.3-6c-2.6,0-5.2,0.6-7.6,1.7
			c-2.5,1.2-4.7,2.8-6.5,4.8c-2,2.2-3.6,4.8-4.8,7.5c-1.3,3.2-2.1,6.6-2.4,10L421.5,512.5z"/>
		<path class="st2" d="M434.3,531.6c0-6.8,3.2-12,9.7-15.6c6.4-3.6,16.6-6.2,30.3-7.7c0.1-2.4-0.1-4.7-0.4-7
			c-0.3-2.2-1.1-4.4-2.2-6.3c-1.1-1.9-2.6-3.4-4.5-4.5c-1.9-1.2-4.4-1.7-7.4-1.7c-4-0.1-7.9,0.8-11.5,2.4c-3.4,1.6-6.2,3.2-8.3,4.8
			l-2.6-4.3c1.1-0.8,2.5-1.6,4.1-2.6c1.7-1,3.5-1.9,5.3-2.6c2.1-0.8,4.2-1.5,6.4-2c2.4-0.6,4.8-0.8,7.2-0.8c3.7,0,6.8,0.6,9.3,1.9
			c2.4,1.2,4.5,2.9,6.1,5.1c1.6,2.3,2.7,4.8,3.3,7.5c0.7,3.1,1,6.2,1,9.3V547h-4.8l-0.6-8h-0.3c-3.2,2.5-6.6,4.7-10.3,6.6
			c-3.6,1.9-7.6,2.9-11.7,2.9c-2.4,0-4.7-0.3-7-1c-2.1-0.7-4-1.7-5.7-3.1c-1.7-1.4-3.1-3.2-3.9-5.3
			C434.7,537,434.3,534.5,434.3,531.6z M440.2,531.3c0,4.5,1.3,7.7,3.9,9.5c2.6,1.9,5.6,2.8,9.2,2.8c3.6,0,7.1-0.9,10.3-2.6
			c3.3-1.7,6.8-4.2,10.7-7.5v-21c-6.4,0.8-11.7,1.7-16.1,2.8c-4.3,1.1-7.8,2.4-10.5,4c-2.7,1.5-4.6,3.3-5.7,5.3
			C440.8,526.7,440.2,529,440.2,531.3z"/>
		<path class="st2" d="M497,485.1h4.9l0.5,11.5h0.4c2.1-3.9,4.6-7,7.5-9.4c2.8-2.3,6.3-3.6,10-3.6c1.1,0,2.2,0.1,3.2,0.3
			c1,0.2,2,0.5,3,1l-1.3,5.2c-0.9-0.4-1.8-0.7-2.7-0.8c-1-0.1-2-0.2-3-0.2c-2.8,0-5.7,1.2-8.7,3.5s-5.8,6.5-8.2,12.3V547H497
			L497,485.1z"/>
		<path class="st2" d="M531.9,516.2c0-5.2,0.8-9.8,2.3-13.9c1.5-4.1,3.6-7.5,6.2-10.3c2.5-2.7,5.6-4.9,9-6.3
			c3.4-1.5,7.1-2.2,10.8-2.2c4.3,0,7.9,0.8,10.8,2.3c2.7,1.4,5.2,3.2,7.4,5.3l-3.4,4c-2-1.9-4.2-3.5-6.6-4.7
			c-2.5-1.3-5.3-1.9-8.1-1.9c-3.1,0-6.1,0.7-8.8,2c-2.7,1.4-5.2,3.3-7.1,5.7c-2.1,2.6-3.7,5.5-4.8,8.7c-1.2,3.6-1.8,7.4-1.7,11.2
			c0,3.8,0.5,7.5,1.6,11.1c1,3.1,2.5,6.1,4.5,8.6c1.9,2.4,4.3,4.3,7.1,5.6c2.9,1.4,6,2,9.2,2c3.2,0,6.3-0.7,9.1-2.1
			c2.7-1.3,5.2-3,7.4-5l3,3.9c-2.7,2.4-5.7,4.4-8.9,5.9c-3.4,1.6-7.1,2.4-10.8,2.3c-3.8,0-7.6-0.7-11.2-2.2
			c-3.4-1.5-6.4-3.6-8.9-6.3c-2.6-2.9-4.7-6.4-5.9-10.1C532.7,526,531.9,521.4,531.9,516.2z"/>
		<path class="st2" d="M593.3,454.3h5.7v40.5c3-3.1,6.3-5.8,9.9-8.1c3.4-2.1,7.2-3.2,11.5-3.2c6.4,0,11.2,1.9,14.2,5.8
			s4.5,9.8,4.5,17.9V547h-5.7v-39c0-6.6-1.1-11.5-3.3-14.6c-2.2-3.1-5.8-4.7-10.9-4.7c-3.6,0-7.1,1-10.1,2.9
			c-3,1.9-6.4,4.8-10.2,8.7V547h-5.7L593.3,454.3z"/>
	</g>
	<path class="st3" d="M208.2,462h4.8l-38.2,109.1H170L208.2,462z"/>
	<path class="st1" d="M2,483.8h9l0.9,11.6h0.4c2.2-4,4.9-7.2,8-9.6s6.5-3.6,10.2-3.6c2.4,0,4.7,0.4,6.9,1.3l-2.1,9.5
		c-0.9-0.3-1.9-0.6-2.9-0.8c-1.1-0.2-2.2-0.3-3.3-0.3c-2.7,0-5.6,1.1-8.5,3.3s-5.5,6-7.7,11.5v41.1H2L2,483.8z"/>
	<path class="st1" d="M46.5,516c0-5.3,0.8-10,2.4-14.2c1.5-3.9,3.7-7.5,6.5-10.6c2.6-2.8,5.7-5.1,9.2-6.7c3.4-1.5,7-2.3,10.7-2.3
		c4,0,7.7,0.7,10.9,2.1c3.1,1.3,5.9,3.4,8,6.1c2.2,2.8,3.9,6,4.9,9.5c1.2,4,1.8,8.2,1.7,12.4c0,2-0.1,4-0.4,5.9H57.2
		c0.4,6.9,2.6,12.4,6.4,16.5c3.8,4,8.8,6.1,15,6.1c2.9,0,5.8-0.4,8.5-1.4c2.6-0.9,5.1-2.1,7.4-3.6l3.8,7.1c-3,1.8-6.1,3.4-9.4,4.6
		c-3.4,1.3-7.3,2-11.7,2c-4.1,0-8.2-0.8-12.1-2.3c-3.7-1.5-7-3.7-9.8-6.6c-2.9-3-5.1-6.6-6.5-10.5C47.3,526,46.5,521.3,46.5,516z
		 M91.3,511.1c0-6.6-1.4-11.6-4.2-15.1c-2.8-3.5-6.6-5.2-11.6-5.2c-2.2,0-4.5,0.5-6.5,1.4c-2.1,0.9-4,2.3-5.6,4
		c-1.8,1.8-3.2,4-4.1,6.3c-1.2,2.7-1.9,5.7-2.2,8.6H91.3z"/>
	<path class="st1" d="M112.9,483.8h11.2l12.1,36.4c1,3.2,1.9,6.3,3,9.5c1,3.2,2,6.3,3,9.4h0.5c1-3.1,1.9-6.2,2.9-9.4l2.9-9.5
		l12.1-36.4h10.7l-22.7,64H136L112.9,483.8z"/>
	<path class="st3" d="M208.2,462h4.8l-38.2,109.1H170L208.2,462z"/>
</g>
</svg>
