<svg xmlns="http://www.w3.org/2000/svg" width="14" height="16" viewBox="0 0 14 16">
    <path fill="#000" fill-rule="nonzero" d="M9.653 0H2.746C1.737 0 .916.765.916 1.703V8H.738C.33 8 0 8.307 0 8.686v4.162c0 .379.33.686.738.686h.178v.763c0 .94.821 1.703 1.83 1.703h9.424c1.009 0 1.83-.764 1.83-1.703V4.03L9.653 0zM1.935 9.437c.216-.034.52-.06.948-.06.432 0 .74.077.948.232a.822.822 0 0 1 .331.668c0 .282-.101.522-.285.685-.24.21-.594.304-1.008.304a1.95 1.95 0 0 1-.24-.013v1.032h-.694V9.437zm10.235 5.52H2.746c-.39 0-.708-.296-.708-.66v-.763h8.785c.407 0 .737-.307.737-.686V8.686c0-.379-.33-.686-.737-.686H2.038V1.703c0-.363.318-.66.708-.66l6.488-.005v2.23c0 .652.568 1.182 1.27 1.182l2.348-.007.027 9.854c0 .364-.318.66-.709.66zm-7.56-2.685V9.437c.258-.038.594-.06.948-.06.59 0 .971.099 1.27.309.323.222.525.578.525 1.088 0 .552-.216.933-.515 1.168-.327.253-.824.373-1.432.373a6.52 6.52 0 0 1-.796-.043zm5.023-1.678v.53H8.519v1.161h-.704V9.4h1.896v.535H8.52v.66h1.114zm-6.166-.3c0 .295-.23.47-.602.47-.102 0-.176-.004-.235-.016v-.853a1.3 1.3 0 0 1 .29-.025c.35 0 .547.158.547.424zm2.165-.415c.603 0 .98.317.976.916 0 .69-.415 1.015-1.05 1.01-.087 0-.184 0-.244-.013V9.904c.06-.013.161-.025.318-.025z"/>
</svg>
